<svg width="512" height="512" viewBox="0 0 512 512" fill="none" xmlns="http://www.w3.org/2000/svg">
<rect width="512" height="512" rx="90" fill="#C5EBAA"/>
<path d="M245.943 243.162C246.022 243.193 246.085 243.244 246.13 243.305L249.894 249.003C249.985 249.141 250.019 249.295 249.996 249.449C249.7 251.27 249.837 253.475 248.774 255.059C247.381 257.131 245.204 260.9 242.839 262.049C236.949 264.921 231.054 267.767 225.148 270.593C223.073 271.587 221.191 272.403 219.605 274.054C217.104 276.654 214.654 279.295 212.261 281.972C212.141 282.105 212.084 282.259 212.079 282.434C211.982 286.116 211.88 289.782 211.777 293.439C211.704 296.08 216.587 305.172 218.701 307.11C223.391 311.413 227.979 316.034 233.368 319.644C237.99 322.731 242.589 325.885 247.398 328.685C254.868 333.034 262.389 337.31 269.955 341.516C273.94 343.726 279.369 345.551 283.604 343.059C288.004 340.469 290.613 335.562 292.262 331.239C292.995 329.295 293.575 326.593 293.996 323.131C300.368 270.7 306.741 218.27 313.113 165.839C313.506 162.603 312.397 161.008 310.618 157.849C310.533 157.69 310.396 157.577 310.22 157.5C308.566 156.813 306.633 156.516 304.427 156.613C289.408 157.275 274.435 157.988 259.506 158.747C259.37 158.757 259.279 158.618 259.353 158.511L265.618 149.788C265.896 149.398 266.322 149.106 266.817 148.972C281.666 144.875 296.605 140.747 311.641 136.577C314.614 135.752 316.803 135.018 319.912 135.09C323.039 135.157 330.691 134.562 333.169 135.757C339.11 138.624 340.468 145.829 339.872 151.516C336.927 179.552 333.687 207.562 330.651 235.593C326.689 272.121 322.738 308.649 318.787 345.177C318.486 347.951 317.866 350.798 317.337 353.603C317.167 354.516 316.82 355.346 316.291 356.1C313.273 360.387 309.941 364.464 306.303 368.336C304.205 370.567 295.207 375.649 292.04 375.695C288.68 375.741 283.706 376.449 280.574 375.536C274.52 373.772 267.869 372.264 262.269 369.526C256.772 366.839 251.292 364.131 245.823 361.403C238.751 357.875 232.345 353.182 225.785 348.936C217.024 343.259 209.043 336.608 201.136 330.054C199.351 328.577 197.668 326.936 196.088 325.136C192.302 320.823 188.322 316.454 185.019 312.116C180.017 305.546 177.385 301.069 174.019 293.403C173.604 292.464 173.383 291.475 173.349 290.434C173.224 286.444 172.593 282.167 173.417 278.275C174.008 275.464 174.434 272.239 176.225 269.808C178.385 266.875 180.443 263.675 183.513 261.428C186.094 259.541 189.59 256.285 192.626 255.254C205.217 250.972 217.809 246.69 230.401 242.408C235.517 240.67 240.912 241.372 245.943 243.162Z" fill="black"/>
<path d="M186.458 440.509C186.458 442.836 185.286 444 182.942 444H172.103C169.808 444 168.66 442.836 168.66 440.509V431.109H174.349V439.093H180.745V405.792H186.458V440.509ZM196.077 444H190.584V438.092H196.077V444ZM219.612 444H213.948L212.801 436.749H205.647L204.5 444H198.86V443.902L206.258 405.743H212.264L219.612 444ZM211.995 431.842L209.212 414.605L206.404 431.842H211.995ZM227.864 444H222.371V438.092H227.864V444ZM251.595 444H245.638L239.339 426.251C239.339 426.251 239.339 425.104 239.339 422.809H244.954V410.699H237.752V444H232.039V405.792H247.2C249.495 405.792 250.643 406.964 250.643 409.308V423.199C250.643 424.811 250.097 425.852 249.007 426.324C248.421 426.568 247.184 426.69 245.296 426.69L251.595 444ZM260.14 444H254.646V438.092H260.14V444ZM283.333 405.792L276.009 444.049H270.32L263.021 405.792H268.758L273.03 431.988C273.063 432.737 273.112 433.827 273.177 435.26C273.16 434.511 273.209 433.421 273.323 431.988L277.62 405.792H283.333ZM291.634 444H286.141V438.092H291.634V444ZM301.619 444H295.906V405.792H301.619V444ZM311.36 444H305.867V438.092H311.36V444ZM333.846 440.509C333.846 442.836 332.69 444 330.379 444H318.88C316.585 444 315.438 442.836 315.438 440.509V431.402H321.15V439.19H328.133V431.695L316.683 420.855C315.853 420.058 315.438 419.041 315.438 417.804V409.308C315.438 406.964 316.585 405.792 318.88 405.792H330.379C332.69 405.792 333.846 406.948 333.846 409.259V417.804H328.133V410.602H321.15V417.511L332.601 428.302C333.431 429.083 333.846 430.117 333.846 431.402V440.509Z" fill="black"/>
<path d="M221.363 471.905C221.363 473.302 220.67 474 219.283 474H212.384C211.007 474 210.318 473.302 210.318 471.905V466.441H213.746V471.114H217.936V466.617L211.065 460.113C210.567 459.635 210.318 459.024 210.318 458.282V453.185C210.318 451.778 211.007 451.075 212.384 451.075H219.283C220.67 451.075 221.363 451.769 221.363 453.155V458.282H217.936V453.961H213.746V458.106L220.616 464.581C221.114 465.05 221.363 465.67 221.363 466.441V471.905ZM233.668 472.169C233.668 473.39 233.048 474 231.808 474H225.802C224.542 474 223.912 473.39 223.912 472.169V461.036C223.912 459.815 224.542 459.205 225.802 459.205H231.808C233.048 459.205 233.668 459.815 233.668 461.036V472.169ZM230.387 471.217V462.003H227.208V471.217H230.387ZM239.483 474H236.188V451.075H239.483V474ZM251.832 474H248.492V473.487C247.721 473.614 246.944 473.741 246.163 473.868C245.216 474.015 244.435 474.088 243.819 474.088C242.599 474.088 241.988 473.478 241.988 472.257V459.205H245.313V471.217L248.492 471.144V459.205H251.832V474ZM260.65 474H256.93C255.689 474 255.069 473.39 255.069 472.169V462.062H253.487V459.205H255.069V455.191H258.409V459.205H260.562V462.062H258.409V471.144H260.65V474ZM265.938 457.081H262.584V453.624H265.938V457.081ZM265.909 474H262.613V459.205H265.909V474ZM278.17 472.169C278.17 473.39 277.55 474 276.31 474H270.304C269.044 474 268.414 473.39 268.414 472.169V461.036C268.414 459.815 269.044 459.205 270.304 459.205H276.31C277.55 459.205 278.17 459.815 278.17 461.036V472.169ZM274.889 471.217V462.003H271.71V471.217H274.889ZM290.475 474H287.105V462.003L283.956 462.062V474H280.602V459.205H283.956V459.747C284.737 459.62 285.514 459.498 286.285 459.381C287.242 459.225 288.028 459.146 288.644 459.146C289.864 459.146 290.475 459.747 290.475 460.948V474ZM302.179 472.169C302.179 473.39 301.559 474 300.318 474H294.679C293.438 474 292.818 473.39 292.818 472.169V468.99H296.026V471.48H298.971V469.137L293.829 466.104C293.155 465.704 292.818 465.167 292.818 464.493V461.036C292.818 459.815 293.448 459.205 294.708 459.205H300.289C301.529 459.205 302.149 459.815 302.149 461.036V464.01H298.971V461.725H296.026V463.863L301.153 466.866C301.837 467.257 302.179 467.804 302.179 468.507V472.169Z" fill="black"/>
</svg>
